{"title":"San.Andreas.2015.WEBRip.480p.x264.AAC-VYTO [P2PDL]","uid":12292923,"size":453286518,"categoryP":"video","categoryS":"movies","magnet":"?xt=urn:btih:2f4a5ec811ffd4cfd12e4505ce3a18b85538c29c&amp;dn=San.Andreas.2015.WEBRip.480p.x264.AAC-VYTO+%5BP2PDL%5D&amp;tr=udp%3A%2F%2Ftracker.openbittorrent.com%3A80&amp;tr=udp%3A%2F%2Fopen.demonii.com%3A1337&amp;tr=udp%3A%2F%2Ftracker.coppersurfer.tk%3A6969&amp;tr=udp%3A%2F%2Fexodus.desync.com%3A6969","seeders":11,"leechers":8,"uploader":"ValidusVyto","files":7,"time":1440585315,"description":"____    ____ ____    ____ .___________.  ______   \n     /   /      /   / |           | /  __    \n    /   /      /   /  `---|  |----`|  |  |  | \n        /     _    _/       |  |     |  |  |  | \n       /        |  |         |  |     |  `--'  | \n    __/         |__|         |__|      ______/  \n                                                  \nPresenting Small Encodes with quality for years!\n                                                                                                   \n                                                                                                   \n\nSan.Andreas.2015.WEBRip.480p.x264.AAC-VYTO\n\n\nGenre: Action, Drama, Thriller   &lt;a href=&quot;\nhttp://www.imdb.com/title/tt2126355/&quot; rel=&quot;nofollow&quot; target=&quot;_NEW&quot;&gt;\nhttp://www.imdb.com/title/tt2126355/&lt;/a&gt;\n\n\nGeneral\nFormat                         : MPEG-4\nFile size                      : 427 MiB\nDuration                       : 1h 54mn\nOverall bit rate               : 522 Kbps\n\nVideo\nFormat                         : AVC\nBit rate                       : 487 Kbps\nWidth                          : 720 pixels\nHeight                         : 304 pixels\nDisplay aspect ratio           : 2.35:1\nFrame rate mode                : Constant\nFrame rate                     : 23.976 fps\nBit depth                      : 8 bits\nStream size                    : 398 MiB (93%)\nWriting library                : x264 core 148 r2597\n\nAudio\nFormat                         : AAC\nBit rate mode                  : Variable\nBit rate                       : 32.0 Kbps\nChannel(s)                     : 2 channels \nChannel positions              : Front: L R \nSampling rate                  : 48.0 KHz\nStream size                    : 26.2 MiB (6%)\nLanguage                       : English\n\nSubtitle                       : Yes (English)\nSource                     \t   : 720p.WEB-DL.AAC.2.0.H264-SRS\n\nScreenshots:\n &lt;a href=&quot;\nhttp://ititli.com/sX&quot; rel=&quot;nofollow&quot; target=&quot;_NEW&quot;&gt;\nhttp://ititli.com/sX&lt;/a&gt; &lt;a href=&quot;\nhttp://ititli.com/sq&quot; rel=&quot;nofollow&quot; target=&quot;_NEW&quot;&gt;\nhttp://ititli.com/sq&lt;/a&gt; &lt;a href=&quot;\nhttp://ititli.com/sr&quot; rel=&quot;nofollow&quot; target=&quot;_NEW&quot;&gt;\nhttp://ititli.com/sr&lt;/a&gt; &lt;a href=&quot;\nhttp://ititli.com/s1&quot; rel=&quot;nofollow&quot; target=&quot;_NEW&quot;&gt;\nhttp://ititli.com/s1&lt;/a&gt; &lt;a href=&quot;\nhttp://ititli.com/sT&quot; rel=&quot;nofollow&quot; target=&quot;_NEW&quot;&gt;\nhttp://ititli.com/sT&lt;/a&gt; &lt;a href=&quot;\nhttp://ititli.com/sW&quot; rel=&quot;nofollow&quot; target=&quot;_NEW&quot;&gt;\nhttp://ititli.com/sW&lt;/a&gt; &lt;a href=&quot;\nhttp://ititli.com/sg&quot; rel=&quot;nofollow&quot; target=&quot;_NEW&quot;&gt;\nhttp://ititli.com/sg&lt;/a&gt; &lt;a href=&quot;\nhttp://ititli.com/sn&quot; rel=&quot;nofollow&quot; target=&quot;_NEW&quot;&gt;\nhttp://ititli.com/sn&lt;/a&gt; &lt;a href=&quot;\nhttp://ititli.com/sw&quot; rel=&quot;nofollow&quot; target=&quot;_NEW&quot;&gt;\nhttp://ititli.com/sw&lt;/a&gt; &lt;a href=&quot;\nhttp://ititli.com/s2&quot; rel=&quot;nofollow&quot; target=&quot;_NEW&quot;&gt;\nhttp://ititli.com/s2&lt;/a&gt; &lt;a href=&quot;\nhttp://ititli.com/s6&quot; rel=&quot;nofollow&quot; target=&quot;_NEW&quot;&gt;\nhttp://ititli.com/s6&lt;/a&gt; &lt;a href=&quot;\nhttp://ititli.com/s8&quot; rel=&quot;nofollow&quot; target=&quot;_NEW&quot;&gt;\nhttp://ititli.com/s8&lt;/a&gt; &lt;a href=&quot;\nhttp://ititli.com/se&quot; rel=&quot;nofollow&quot; target=&quot;_NEW&quot;&gt;\nhttp://ititli.com/se&lt;/a&gt; &lt;a href=&quot;\nhttp://ititli.com/sj&quot; rel=&quot;nofollow&quot; target=&quot;_NEW&quot;&gt;\nhttp://ititli.com/sj&lt;/a&gt; &lt;a href=&quot;\nhttp://ititli.com/sk&quot; rel=&quot;nofollow&quot; target=&quot;_NEW&quot;&gt;\nhttp://ititli.com/sk&lt;/a&gt;\n\n----------------------------------------------------------------------------------------------------\n\n\nEncoder Notes: Looking For Early Access To Anything You Can Provide DVDScr, R5, DVDR, BluRay, Direct\nAudio, Music Releases and Seedboxes. If You Got anything to offer please contact us.\n\nSupport us by donating BC - 1FgwdzPsd1y25Gea8wP1qni35uGCtmkRCD","torrent":{"xt":"urn:btih:2f4a5ec811ffd4cfd12e4505ce3a18b85538c29c","amp;dn":"San.Andreas.2015.WEBRip.480p.x264.AAC-VYTO+%5BP2PDL%5D","amp;tr":["udp%3A%2F%2Ftracker.openbittorrent.com%3A80","udp%3A%2F%2Fopen.demonii.com%3A1337","udp%3A%2F%2Ftracker.coppersurfer.tk%3A6969","udp%3A%2F%2Fexodus.desync.com%3A6969"],"infoHash":"2f4a5ec811ffd4cfd12e4505ce3a18b85538c29c","infoHashBuffer":{"type":"Buffer","data":[47,74,94,200,17,255,212,207,209,46,69,5,206,58,24,184,85,56,194,156]},"announce":[],"urlList":[]}}